<svg width="53" height="47" viewBox="0 0 53 47" fill="none" xmlns="http://www.w3.org/2000/svg">
<g clip-path="url(#clip0_3:109)">
<path d="M43.5766 15.0157C43.0268 14.8297 42.4571 14.6538 41.8705 14.4875C41.9669 14.1009 42.0554 13.7193 42.1341 13.3442C43.4256 7.18505 42.5812 2.2232 39.6977 0.589551C36.9328 -0.976905 32.411 0.656377 27.8442 4.56098C27.4051 4.93644 26.9647 5.33396 26.5245 5.75058C26.2312 5.47494 25.9384 5.20856 25.6463 4.95377C20.8602 0.778719 16.0629 -0.980705 13.1822 0.657674C10.42 2.22867 9.60195 6.89328 10.7645 12.7303C10.8768 13.2941 11.008 13.8699 11.1564 14.4553C10.4774 14.6446 9.82195 14.8465 9.19478 15.0613C3.58357 16.9833 0 19.9955 0 23.12C0 26.347 3.84697 29.5837 9.69147 31.5463C10.1527 31.7011 10.6313 31.8476 11.1245 31.9866C10.9644 32.6197 10.8252 33.2402 10.7083 33.8453C9.59978 39.5811 10.4654 44.1355 13.2203 45.6965C16.0659 47.3087 20.8415 45.6516 25.4918 41.658C25.8593 41.3423 26.2282 41.0076 26.5977 40.6567C27.0767 41.1098 27.5549 41.5386 28.0306 41.9409C32.5349 45.749 36.9836 47.2867 39.736 45.7213C42.5787 44.1045 43.5026 39.212 42.3032 33.2594C42.2115 32.8048 42.1049 32.3404 41.9852 31.8677C42.3206 31.7703 42.6498 31.6697 42.9709 31.5652C49.0468 29.5874 53 26.3901 53 23.12C53 19.9842 49.3009 16.9517 43.5766 15.0157ZM42.2588 29.4537C41.969 29.548 41.6716 29.6391 41.3686 29.7274C40.6979 27.6412 39.7926 25.4228 38.6848 23.1308C39.7419 20.8934 40.6122 18.7034 41.2642 16.6307C41.8064 16.7848 42.3326 16.9474 42.8397 17.1189C47.7442 18.7777 50.7359 21.2302 50.7359 23.12C50.7359 25.1329 47.5049 27.7459 42.2588 29.4537ZM40.082 33.6914C40.6124 36.3236 40.6882 38.7033 40.3368 40.5637C40.0212 42.2353 39.3864 43.3499 38.6015 43.7962C36.9312 44.7461 33.3593 43.5114 29.5072 40.2547C29.0656 39.8814 28.6207 39.4827 28.1745 39.0608C29.6679 37.4562 31.1605 35.5907 32.6171 33.519C35.1793 33.2956 37.6 32.9304 39.7951 32.4319C39.9033 32.8603 39.9993 33.2806 40.082 33.6914ZM18.0689 43.6321C16.437 44.1983 15.1373 44.2145 14.3516 43.7695C12.6799 42.8221 11.9849 39.1654 12.9329 34.2601C13.0415 33.6984 13.1707 33.1213 13.3197 32.5315C15.4908 33.0032 17.8937 33.3426 20.462 33.5471C21.9285 35.5744 23.4642 37.4378 25.0117 39.0694C24.6736 39.3901 24.3368 39.6954 24.0019 39.9831C21.9456 41.749 19.8849 43.0019 18.0689 43.6321ZM10.4237 29.4414C7.83941 28.5736 5.70517 27.4457 4.24225 26.215C2.92773 25.109 2.26405 24.0109 2.26405 23.12C2.26405 21.2239 5.1413 18.8055 9.94006 17.1618C10.5223 16.9623 11.1318 16.7743 11.7644 16.5978C12.4276 18.7173 13.2976 20.9333 14.3475 23.1741C13.284 25.4482 12.4017 27.6995 11.7319 29.8438C11.281 29.7165 10.8441 29.5825 10.4237 29.4414ZM12.9865 12.3032C11.9904 7.30211 12.6519 3.52949 14.3166 2.58282C16.0897 1.57432 20.0105 3.01222 24.1429 6.61718C24.4071 6.84759 24.6723 7.08875 24.9382 7.33826C23.3983 8.96273 21.8767 10.8122 20.4232 12.8275C17.9306 13.0545 15.5446 13.4191 13.3508 13.9073C13.2129 13.3623 13.0907 12.8267 12.9865 12.3032ZM35.8483 17.8493C35.3238 16.9593 34.7854 16.0904 34.2366 15.2452C35.9276 15.4553 37.5478 15.7341 39.0693 16.0752C38.6125 17.5135 38.0432 19.0173 37.373 20.5589C36.8922 19.6622 36.3837 18.7581 35.8483 17.8493ZM26.5253 8.92798C27.5696 10.0395 28.6155 11.2806 29.6441 12.6271C28.6075 12.579 27.5581 12.554 26.5 12.554C25.4519 12.554 24.4102 12.5784 23.38 12.6257C24.4097 11.2917 25.4646 10.0523 26.5253 8.92798ZM17.1426 17.8647C16.6187 18.7571 16.1197 19.6564 15.6465 20.5573C14.9871 19.021 14.4231 17.5103 13.9623 16.0517C15.4745 15.7192 17.087 15.4474 18.7673 15.2413C18.2107 16.0943 17.6679 16.9696 17.1426 17.8645V17.8647ZM18.8157 31.1573C17.0797 30.967 15.4429 30.7091 13.9311 30.3859C14.3992 28.9011 14.9757 27.3582 15.649 25.7889C16.1234 26.6891 16.6245 27.5887 17.1515 28.4831H17.1516C17.6885 29.3943 18.2447 30.2869 18.8157 31.1573ZM26.5879 37.4688C25.5148 36.3313 24.4444 35.073 23.3991 33.7195C24.4139 33.7586 25.4485 33.7787 26.5 33.7787C27.5803 33.7787 28.6482 33.7547 29.6993 33.7088C28.6673 35.0866 27.6252 36.3468 26.5879 37.4688ZM37.3946 25.7089C38.103 27.2952 38.7001 28.8301 39.1743 30.2895C37.6376 30.6339 35.9785 30.9113 34.2304 31.1174C34.7805 30.2608 35.3236 29.377 35.8573 28.4678C36.3972 27.548 36.9099 26.6269 37.3946 25.7089ZM33.8961 27.3566C33.0676 28.7679 32.2171 30.1151 31.3536 31.3868C29.7808 31.4973 28.156 31.5542 26.5 31.5542C24.8507 31.5542 23.2463 31.5039 21.7014 31.4054C20.8031 30.117 19.9341 28.7657 19.1109 27.3687H19.1111C18.29 25.9755 17.5344 24.5705 16.8497 23.1734C17.5342 21.773 18.2879 20.3664 19.1042 18.9757L19.104 18.976C19.9225 17.5815 20.7839 16.2369 21.6739 14.9565C23.2501 14.8395 24.8664 14.7784 26.4999 14.7784H26.5C28.1408 14.7784 29.7592 14.8399 31.335 14.958C32.2114 16.229 33.067 17.5693 33.8887 18.9639C34.7197 20.3742 35.4831 21.7714 36.1735 23.1417C35.4852 24.5356 34.7235 25.9469 33.8961 27.3566ZM38.5667 2.51664C40.3416 3.52217 41.0317 7.57748 39.9166 12.8952C39.8455 13.2345 39.7654 13.5802 39.6784 13.9304C37.4796 13.432 35.0919 13.061 32.592 12.8306C31.1356 10.7932 29.6265 8.94086 28.1117 7.33724C28.519 6.95232 28.9257 6.58529 29.3307 6.23893C33.2435 2.89349 36.9005 1.57265 38.5667 2.51664ZM26.5 18.4703C29.1138 18.4703 31.2327 20.552 31.2327 23.12C31.2327 25.6879 29.1138 27.7697 26.5 27.7697C23.8862 27.7697 21.7673 25.6879 21.7673 23.12C21.7673 20.552 23.8862 18.4703 26.5 18.4703Z" fill="#00D8FF"/>
</g>
<defs>
<clipPath id="clip0_3:109">
<rect width="53" height="46.375" fill="white"/>
</clipPath>
</defs>
</svg>
